<svg width="24" height="24" viewBox="0 0 24 24" fill="none" xmlns="http://www.w3.org/2000/svg">
<path d="M14.115 12L23.565 2.565C23.8475 2.28255 24.0062 1.89946 24.0062 1.5C24.0062 1.10055 23.8475 0.717459 23.565 0.435004C23.2826 0.152548 22.8995 -0.00613403 22.5 -0.00613403C22.1006 -0.00613403 21.7175 0.152548 21.435 0.435004L12 9.885L2.56503 0.435004C2.28258 0.152548 1.89948 -0.00613368 1.50003 -0.00613368C1.10058 -0.00613367 0.717486 0.152548 0.43503 0.435004C0.152575 0.717459 -0.00610673 1.10055 -0.00610673 1.5C-0.00610674 1.89946 0.152575 2.28255 0.43503 2.565L9.88503 12L0.43503 21.435C0.294438 21.5744 0.182847 21.7403 0.106694 21.9231C0.0305407 22.1059 -0.00866699 22.302 -0.00866699 22.5C-0.00866699 22.698 0.0305407 22.8941 0.106694 23.0769C0.182847 23.2597 0.294438 23.4256 0.43503 23.565C0.574475 23.7056 0.740376 23.8172 0.923165 23.8933C1.10595 23.9695 1.30201 24.0087 1.50003 24.0087C1.69805 24.0087 1.89411 23.9695 2.0769 23.8933C2.25968 23.8172 2.42559 23.7056 2.56503 23.565L12 14.115L21.435 23.565C21.5745 23.7056 21.7404 23.8172 21.9232 23.8933C22.106 23.9695 22.302 24.0087 22.5 24.0087C22.698 24.0087 22.8941 23.9695 23.0769 23.8933C23.2597 23.8172 23.4256 23.7056 23.565 23.565C23.7056 23.4256 23.8172 23.2597 23.8934 23.0769C23.9695 22.8941 24.0087 22.698 24.0087 22.5C24.0087 22.302 23.9695 22.1059 23.8934 21.9231C23.8172 21.7403 23.7056 21.5744 23.565 21.435L14.115 12Z" fill="#E7E8E8"/>
</svg>
