<svg width="33" height="24" viewBox="0 0 33 24" fill="none" xmlns="http://www.w3.org/2000/svg">
<path d="M5.06025 19V15.688H1.74825V14.296H5.06025V11H6.45225V14.296H9.74825V15.688H6.45225V19H5.06025ZM13.7386 19V8.44H11.4826V7.08H15.3226V19H13.7386Z" fill="#424547"/>
<path d="M29.5001 10.585C29.4064 10.4919 29.2797 10.4396 29.1476 10.4396C29.0155 10.4396 28.8888 10.4919 28.7951 10.585L27.0001 12.355L25.2301 10.585C25.1364 10.4919 25.0097 10.4396 24.8776 10.4396C24.7455 10.4396 24.6188 10.4919 24.5251 10.585C24.4782 10.6315 24.441 10.6868 24.4157 10.7477C24.3903 10.8086 24.3772 10.874 24.3772 10.94C24.3772 11.006 24.3903 11.0714 24.4157 11.1323C24.441 11.1932 24.4782 11.2485 24.5251 11.295L26.6451 13.415C26.6916 13.4619 26.7469 13.4991 26.8078 13.5244C26.8687 13.5498 26.9341 13.5629 27.0001 13.5629C27.0661 13.5629 27.1315 13.5498 27.1924 13.5244C27.2533 13.4991 27.3086 13.4619 27.3551 13.415L29.5001 11.295C29.547 11.2485 29.5842 11.1932 29.6095 11.1323C29.6349 11.0714 29.648 11.006 29.648 10.94C29.648 10.874 29.6349 10.8086 29.6095 10.7477C29.5842 10.6868 29.547 10.6315 29.5001 10.585Z" fill="#424547"/>
</svg>
