<svg width="16" height="16" viewBox="0 0 16 16" fill="none" xmlns="http://www.w3.org/2000/svg">
<path d="M7.99991 7.33334C7.8231 7.33334 7.65353 7.40358 7.52851 7.52861C7.40348 7.65363 7.33324 7.8232 7.33324 8.00001V10C7.33324 10.1768 7.40348 10.3464 7.52851 10.4714C7.65353 10.5964 7.8231 10.6667 7.99991 10.6667C8.17672 10.6667 8.34629 10.5964 8.47131 10.4714C8.59634 10.3464 8.66658 10.1768 8.66658 10V8.00001C8.66658 7.8232 8.59634 7.65363 8.47131 7.52861C8.34629 7.40358 8.17672 7.33334 7.99991 7.33334ZM7.99991 5.33334C7.86806 5.33334 7.73916 5.37244 7.62953 5.4457C7.5199 5.51895 7.43445 5.62307 7.38399 5.74489C7.33353 5.86671 7.32033 6.00075 7.34605 6.13007C7.37178 6.25939 7.43527 6.37818 7.52851 6.47141C7.62174 6.56465 7.74053 6.62814 7.86985 6.65387C7.99917 6.67959 8.13322 6.66639 8.25503 6.61593C8.37685 6.56547 8.48097 6.48002 8.55422 6.37039C8.62748 6.26076 8.66658 6.13186 8.66658 6.00001C8.66658 5.8232 8.59634 5.65363 8.47131 5.52861C8.34629 5.40358 8.17672 5.33334 7.99991 5.33334ZM7.99991 1.33334C7.12443 1.33334 6.25752 1.50578 5.44869 1.84081C4.63985 2.17584 3.90492 2.66691 3.28587 3.28596C2.03562 4.53621 1.33324 6.2319 1.33324 8.00001C1.32742 9.53943 1.86044 11.0324 2.83991 12.22L1.50658 13.5533C1.41407 13.6471 1.35141 13.7661 1.32649 13.8955C1.30158 14.0248 1.31552 14.1586 1.36658 14.28C1.42195 14.4 1.51171 14.5008 1.62448 14.5696C1.73724 14.6384 1.86791 14.6722 1.99991 14.6667H7.99991C9.76802 14.6667 11.4637 13.9643 12.714 12.7141C13.9642 11.4638 14.6666 9.76812 14.6666 8.00001C14.6666 6.2319 13.9642 4.53621 12.714 3.28596C11.4637 2.03572 9.76802 1.33334 7.99991 1.33334ZM7.99991 13.3333H3.60658L4.22658 12.7133C4.28957 12.6516 4.33968 12.578 4.37401 12.4967C4.40834 12.4155 4.42621 12.3282 4.42658 12.24C4.42407 12.0642 4.35219 11.8964 4.22658 11.7733C3.35363 10.9014 2.81003 9.7537 2.68837 8.52587C2.56672 7.29804 2.87454 6.06601 3.5594 5.03969C4.24425 4.01337 5.26377 3.25625 6.44425 2.89733C7.62474 2.5384 8.89315 2.59988 10.0334 3.07129C11.1736 3.54269 12.1151 4.39486 12.6975 5.4826C13.2799 6.57035 13.4672 7.82637 13.2273 9.03668C12.9875 10.247 12.3354 11.3367 11.3823 12.1202C10.4291 12.9036 9.23375 13.3324 7.99991 13.3333Z" fill="#D0302F"/>
</svg>
